<?xml version="1.0" encoding="UTF-8"?>
<svg version="1.1" xmlns="http://www.w3.org/2000/svg" width="306" height="98">
<path d="M0 0 C1.01642578 -0.02900391 2.03285156 -0.05800781 3.08007812 -0.08789062 C9.51902109 -0.14192953 14.4808793 0.51448581 19.8125 4.3125 C23.70273195 8.50198056 24.95278294 10.97795323 24.9375 16.625 C24.94136719 18.04232422 24.94136719 18.04232422 24.9453125 19.48828125 C24.8125 22.3125 24.8125 22.3125 24.21484375 24.9921875 C23.54393278 27.48170179 23.54393278 27.48170179 25.25 30.125 C27.50603274 34.7273068 27.70483411 38.67387764 26.0859375 43.4609375 C24.09149616 47.82276449 21.92479601 50.67641282 17.8125 53.3125 C12.37344591 55.12551803 6.50388191 54.53987025 0.8125 54.5625 C-1.13269531 54.5934375 -1.13269531 54.5934375 -3.1171875 54.625 C-4.35726562 54.63015625 -5.59734375 54.6353125 -6.875 54.640625 C-8.58236328 54.65464355 -8.58236328 54.65464355 -10.32421875 54.66894531 C-13.1875 54.3125 -13.1875 54.3125 -14.84318542 53.07818604 C-16.56838826 50.81222343 -16.56198902 49.53542156 -16.55981445 46.70507812 C-16.56604324 45.77401245 -16.57227203 44.84294678 -16.57868958 43.88366699 C-16.56947983 42.88049438 -16.56027008 41.87732178 -16.55078125 40.84375 C-16.55127975 39.81189575 -16.55177826 38.7800415 -16.55229187 37.71691895 C-16.54995078 35.53472977 -16.54022021 33.35253792 -16.52368164 31.17041016 C-16.5000924 27.82560135 -16.50312019 24.48158956 -16.50976562 21.13671875 C-16.50418885 19.0182244 -16.49707897 16.89973342 -16.48828125 14.78125 C-16.48919266 13.77807739 -16.49010406 12.77490479 -16.49104309 11.74133301 C-16.48151108 10.81026733 -16.47197906 9.87920166 -16.4621582 8.91992188 C-16.45755081 8.10068237 -16.45294342 7.28144287 -16.44819641 6.43737793 C-16.1875 4.3125 -16.1875 4.3125 -14.1875 1.3125 C-9.53547609 -0.23817464 -4.87332557 0.04548842 0 0 Z M-3.1875 13.3125 C-3.1875 22.8825 -3.1875 32.4525 -3.1875 42.3125 C9.47197453 43.60680046 9.47197453 43.60680046 13.8125 40.3125 C14.14588596 36.77062169 14.14588596 36.77062169 13.8125 33.3125 C12.07293342 31.57293342 9.6188378 31.94059614 7.25 31.75 C6.23808594 31.66621094 5.22617188 31.58242188 4.18359375 31.49609375 C3.00990234 31.40521484 3.00990234 31.40521484 1.8125 31.3125 C1.71484375 25.16015625 1.71484375 25.16015625 1.8125 23.3125 C3.74553695 21.37946305 7.15999531 21.46404354 9.78125 21.0078125 C10.4515625 20.77835938 11.121875 20.54890625 11.8125 20.3125 C13.14583333 17.3125 13.14583333 17.3125 11.8125 14.3125 C7.33043698 12.07146849 1.82359879 13.3125 -3.1875 13.3125 Z " fill="#187E3C" transform="translate(151.1875,16.6875)"/>
<path d="M0 0 C0.76183594 -0.00257812 1.52367187 -0.00515625 2.30859375 -0.0078125 C4.5625 0.125 4.5625 0.125 6.72265625 0.6953125 C8.64376395 1.35058064 8.64376395 1.35058064 10.5625 0.125 C12.4375 -0.04296875 12.4375 -0.04296875 14.5625 -0.0625 C15.614375 -0.08376953 15.614375 -0.08376953 16.6875 -0.10546875 C18.5625 0.125 18.5625 0.125 20.5625 2.125 C20.77485493 4.92393237 20.86646365 7.62129554 20.86328125 10.421875 C20.86756638 11.24826477 20.8718515 12.07465454 20.87626648 12.92608643 C20.88201621 14.67792851 20.88250532 16.42979446 20.87817383 18.18164062 C20.87502866 20.85068129 20.89841236 23.51859769 20.92382812 26.1875 C20.92610267 27.89062361 20.92680389 29.59375018 20.92578125 31.296875 C20.934991 32.09083679 20.94420074 32.88479858 20.95368958 33.70281982 C20.90676466 39.38221387 19.84023142 43.59898506 15.9140625 47.953125 C10.71489928 52.23478883 6.77014359 54.6411094 -0.24609375 54.44140625 C-5.62885898 53.66421555 -10.21905785 51.74958953 -13.5 47.375 C-13.809375 46.6325 -14.11875 45.89 -14.4375 45.125 C-11.5625 40.25 -11.5625 40.25 -10.4375 39.125 C-4.04215116 39.82267442 -4.04215116 39.82267442 -1.4375 41.125 C1.52019177 41.62510524 1.52019177 41.62510524 4.5625 41.125 C6.4979148 38.73443058 6.4979148 38.73443058 7.5625 36.125 C6.0775 36.62 6.0775 36.62 4.5625 37.125 C-0.86659563 37.88680916 -5.20867122 37.81226608 -9.8125 34.625 C-14.24311943 30.79529454 -16.83694144 26.69707227 -17.8125 20.89453125 C-18.12470674 15.22602762 -16.72733532 10.74284224 -13.4375 6.125 C-9.45077633 1.93009233 -5.80676519 -0.01958437 0 0 Z M-3.3125 13.1875 C-5.08023274 16.2319286 -4.80573916 18.6881012 -4.4375 22.125 C-3.45701062 24.18902685 -3.45701062 24.18902685 -1.4375 25.125 C1.68061483 25.51476435 3.67269567 25.62922245 6.4375 24.0625 C8.20523274 21.0180714 7.93073916 18.5618988 7.5625 15.125 C6.58201062 13.06097315 6.58201062 13.06097315 4.5625 12.125 C1.44438517 11.73523565 -0.54769567 11.62077755 -3.3125 13.1875 Z " fill="#197D3C" transform="translate(262.4375,32.875)"/>
<path d="M0 0 C1.35546875 1.9375 1.35546875 1.9375 2 4 C0.625 7.25 0.625 7.25 -1 10 C-2.0209375 9.566875 -2.0209375 9.566875 -3.0625 9.125 C-10.6444676 6.22126773 -17.61571835 4.27797596 -25.3125 7.5625 C-28.48007901 9.36721103 -30.41371675 11.15949065 -31.59765625 14.75 C-32.93958252 22.25436436 -32.97089281 29.54414998 -29.4609375 36.4140625 C-26.23096998 39.92039088 -22.7968495 40.93963261 -18.1328125 41.29296875 C-16.79655698 41.27331793 -15.46044674 41.23796746 -14.125 41.1875 C-13.09246094 41.16719727 -13.09246094 41.16719727 -12.0390625 41.14648438 C-10.35902999 41.1114837 -8.6794065 41.05768954 -7 41 C-7.17402344 40.42765625 -7.34804688 39.8553125 -7.52734375 39.265625 C-8.27163407 35.69795238 -7.53823586 32.58823904 -7 29 C-10.96 29 -14.92 29 -19 29 C-19 26.36 -19 23.72 -19 21 C-12.07 21 -5.14 21 2 21 C2.98948571 23.96845714 3.12890185 25.93820061 3.1328125 29.03515625 C3.13474609 30.49598633 3.13474609 30.49598633 3.13671875 31.98632812 C3.13285156 33.00146484 3.12898438 34.01660156 3.125 35.0625 C3.13080078 36.59100586 3.13080078 36.59100586 3.13671875 38.15039062 C3.13542969 39.12298828 3.13414063 40.09558594 3.1328125 41.09765625 C3.13168457 41.98976807 3.13055664 42.88187988 3.12939453 43.80102539 C3 46 3 46 2 48 C-7.40366203 52.05138008 -19.25794256 52.70591914 -29.0625 49.8125 C-36.50079912 46.7701938 -39.61373672 42.55407282 -43.01953125 35.5 C-46.43791763 26.78379569 -45.58202486 17.51941048 -42 9 C-38.00624733 2.57867218 -33.23315413 -1.23385464 -25.9921875 -3.41015625 C-17.1563676 -5.1519432 -7.76669056 -5.10427534 0 0 Z " fill="#050301" transform="translate(59,20)"/>
<path d="M0 0 C4.62463295 2.64398207 7.31777718 6.02690374 10 10.625 C11.69910842 17.42143368 11.40622867 23.56854667 7.8828125 29.69140625 C4.55582556 34.37745649 0.01567977 36.53769663 -5.3125 38.375 C-12.09836922 39.11527664 -17.35924939 37.18722197 -23.0625 33.6875 C-27.41431472 29.21480154 -29.53288364 24.64226317 -29.8125 18.375 C-29.51587067 12.33117737 -27.86498984 7.73232965 -23.37109375 3.58203125 C-16.32529526 -1.88073333 -8.45154335 -3.87228507 0 0 Z M-15.3125 12.375 C-16.94291883 15.63583766 -16.97214122 18.81738446 -16.3125 22.375 C-14.11537161 25.07915801 -12.75308039 25.31992745 -9.3125 25.75 C-5.87191961 25.31992745 -4.50962839 25.07915801 -2.3125 22.375 C-1.65285878 18.81738446 -1.68208117 15.63583766 -3.3125 12.375 C-7.10480771 10.47884615 -11.52019229 10.47884615 -15.3125 12.375 Z " fill="#187D3C" transform="translate(232.3125,33.625)"/>
<path d="M0 0 C4.69809753 3.84389798 7.48037341 8.04941424 8.28515625 14.16796875 C8.51979943 20.09525947 7.68285223 25.96251787 3.640625 30.5390625 C-1.94627292 35.46359623 -7.07404576 36.41077449 -14.28125 36.24609375 C-19.53467694 35.77056804 -23.25494542 34.12595994 -26.8125 30.125 C-31.16199647 23.91143361 -31.82516152 18.44734389 -31 11 C-29.42700503 5.41445498 -26.54493229 2.1039887 -21.78125 -1.08984375 C-14.78046009 -4.66700175 -6.67495257 -3.7225697 0 0 Z M-19 9 C-20.95888193 12.91776386 -20.35831645 17.71873625 -20 22 C-18.62747293 25.11937969 -18.020457 26.4897715 -15 28 C-9.9441603 28.51001121 -9.9441603 28.51001121 -5.625 26.1875 C-2.39804256 21.84351883 -2.47865642 17.20428943 -3 12 C-4.62400184 8.36532921 -5.66113044 7.22591304 -9 5 C-13.63871157 4.26757186 -15.67569053 5.86037439 -19 9 Z " fill="#050401" transform="translate(123,35)"/>
<path d="M0 0 C2.029668 3.044502 2.24856301 3.60276328 2.22705078 7.01245117 C2.22682419 8.2133564 2.22682419 8.2133564 2.22659302 9.43852234 C2.21627045 10.29798965 2.20594788 11.15745697 2.1953125 12.04296875 C2.1924826 12.9265657 2.18965271 13.81016266 2.18673706 14.72053528 C2.17554097 17.54299454 2.15043751 20.36513662 2.125 23.1875 C2.11496946 25.10090688 2.10584374 27.01431873 2.09765625 28.92773438 C2.07560351 33.61861182 2.04107762 38.30925213 2 43 C3.4540625 43.185625 3.4540625 43.185625 4.9375 43.375 C5.948125 43.58125 6.95875 43.7875 8 44 C9.38550197 46.77100394 9.1877467 48.9334706 9 52 C8.34 52.99 7.68 53.98 7 55 C2.67391307 55.84825234 -2.02685479 55.99419093 -6.0234375 53.98046875 C-8.64691085 51.86249392 -9.93090735 50.20727795 -11 47 C-11.1057299 45.52800303 -11.15846597 44.05184471 -11.17700195 42.57617188 C-11.18983719 41.68514771 -11.20267242 40.79412354 -11.21589661 39.87609863 C-11.22328354 38.91667358 -11.23067047 37.95724854 -11.23828125 36.96875 C-11.246353 35.98128784 -11.25442474 34.99382568 -11.26274109 33.97644043 C-11.27656907 31.88844555 -11.28729697 29.80042818 -11.29516602 27.71240234 C-11.31243382 24.51226508 -11.35633772 21.31314643 -11.40039062 18.11328125 C-11.41051289 16.0859451 -11.41903045 14.05860018 -11.42578125 12.03125 C-11.44328934 11.07182495 -11.46079742 10.1123999 -11.47883606 9.12390137 C-11.47591049 8.2328772 -11.47298492 7.34185303 -11.4699707 6.42382812 C-11.47583694 5.64011841 -11.48170319 4.85640869 -11.48774719 4.0489502 C-11 2 -11 2 -9.19718933 0.21569824 C-5.87832235 -1.62062087 -3.5786063 -0.92778682 0 0 Z " fill="#1B7D3C" transform="translate(193,16)"/>
<path d="M0 0 C3.63 0 7.26 0 11 0 C11.01458252 1.25659424 11.02916504 2.51318848 11.04418945 3.80786133 C11.10211604 8.46537892 11.17934911 13.12241016 11.26245117 17.77954102 C11.2957271 19.79606235 11.32375068 21.81267742 11.34643555 23.8293457 C11.37993256 26.726481 11.43224544 29.62275518 11.48828125 32.51953125 C11.49467117 33.42274612 11.5010611 34.325961 11.50764465 35.25654602 C11.53733589 36.5175135 11.53733589 36.5175135 11.56762695 37.80395508 C11.57873001 38.54341873 11.58983307 39.28288239 11.60127258 40.04475403 C12.11266236 42.55246423 12.98243538 43.46376472 15 45 C17.62570704 45.25069913 17.62570704 45.25069913 20 45 C20.09765625 51.15234375 20.09765625 51.15234375 20 53 C18.36069007 54.63930993 16.50256326 54.21001367 14.25 54.25 C9.99323238 54.1953482 7.30276786 53.90243236 4 51 C-0.44899113 44.96208347 -0.14025097 38.7312535 -0.09765625 31.54296875 C-0.0962413 30.64000565 -0.09482635 29.73704254 -0.09336853 28.80671692 C-0.08778823 25.93361037 -0.07523934 23.06058284 -0.0625 20.1875 C-0.05748245 18.23502717 -0.05291999 16.28255311 -0.04882812 14.33007812 C-0.03782525 9.55335515 -0.02057418 4.77669096 0 0 Z " fill="#040201" transform="translate(70,17)"/>
<path d="M0 0 C0.33 0 0.66 0 1 0 C1.00586624 0.5593222 1.01173248 1.11864441 1.01777649 1.69491577 C1.08157787 7.50235216 1.16596184 13.30922753 1.26245117 19.11621094 C1.29576091 21.28508114 1.32377379 23.45403929 1.34643555 25.62304688 C1.37987055 28.73605938 1.43218013 31.8482614 1.48828125 34.9609375 C1.49467117 35.934935 1.5010611 36.9089325 1.50764465 37.91244507 C1.53733589 39.26361923 1.53733589 39.26361923 1.56762695 40.64208984 C1.57873001 41.43706879 1.58983307 42.23204773 1.60127258 43.05111694 C1.8445901 45.4048234 1.8445901 45.4048234 5 47 C7.90644244 47.36887189 7.90644244 47.36887189 11.19921875 47.4140625 C12.40771484 47.45273438 13.61621094 47.49140625 14.86132812 47.53125 C16.7552832 47.57765625 16.7552832 47.57765625 18.6875 47.625 C19.96173828 47.66367188 21.23597656 47.70234375 22.54882812 47.7421875 C25.69907292 47.83657686 28.84930991 47.9221583 32 48 C32 47.01 32 46.02 32 45 C33.98 44.34 35.96 43.68 38 43 C38.33 41.02 38.66 39.04 39 37 C39.66 37 40.32 37 41 37 C41.33 34.36 41.66 31.72 42 29 C42.33 29 42.66 29 43 29 C43.45427868 35.35990151 42.64911329 39.69112872 39 45 C32.44041287 51.23960727 25.58027406 50.2158836 17 50.25 C15.05480469 50.2809375 15.05480469 50.2809375 13.0703125 50.3125 C11.83023438 50.31765625 10.59015625 50.3228125 9.3125 50.328125 C7.60513672 50.34214355 7.60513672 50.34214355 5.86328125 50.35644531 C3 50 3 50 1.34233093 48.7686615 C-0.39130421 46.48441575 -0.36349564 45.19462399 -0.34057617 42.3449707 C-0.34034958 41.40422195 -0.34012299 40.46347321 -0.33988953 39.49421692 C-0.32440567 38.48163315 -0.30892181 37.46904938 -0.29296875 36.42578125 C-0.28872391 35.38681198 -0.28447906 34.34784271 -0.28010559 33.27738953 C-0.26329849 29.95549724 -0.22564196 26.63420925 -0.1875 23.3125 C-0.17245582 21.06185771 -0.15876695 18.81120593 -0.14648438 16.56054688 C-0.11338836 11.04015803 -0.06316869 5.52012218 0 0 Z " fill="#2D7435" transform="translate(135,21)"/>
<path d="M0 0 C0.61875 0.33 1.2375 0.66 1.875 1 C-1.875 2.125 -1.875 2.125 -4.125 1 C-9.50661438 0.48713776 -9.50661438 0.48713776 -14.3125 2.375 C-14.910625 2.91125 -15.50875 3.4475 -16.125 4 C-16.95 4.268125 -17.775 4.53625 -18.625 4.8125 C-21.26795612 6.06790415 -22.86202083 7.31106031 -24.40234375 9.82421875 C-26.35092809 15.69103755 -26.01690135 23.00807638 -24.265625 28.8828125 C-23.29067728 31.28467408 -23.29067728 31.28467408 -20.5 31.8125 C-19.324375 31.9053125 -19.324375 31.9053125 -18.125 32 C-18.125 32.66 -18.125 33.32 -18.125 34 C-17.465 34 -16.805 34 -16.125 34 C-16.125 34.66 -16.125 35.32 -16.125 36 C-14.475 36.33 -12.825 36.66 -11.125 37 C-13.69374557 37.9749557 -14.76804177 38.15019897 -17.34375 37.06640625 C-22.72990168 33.5156042 -26.41855633 30.37373662 -28.125 24 C-29.01429804 18.12127193 -28.48275165 13.03269377 -25.53515625 7.82421875 C-19.18548453 -0.38989952 -9.84216316 -3.14949221 0 0 Z " fill="#2C7637" transform="translate(231.125,33)"/>
<path d="M0 0 C0.33 0.66 0.66 1.32 1 2 C1.66 2 2.32 2 3 2 C3.33 2.99 3.66 3.98 4 5 C2.02 6.65 0.04 8.3 -2 10 C-1.67 9.38125 -1.34 8.7625 -1 8.125 C0.14193235 6.08981656 0.14193235 6.08981656 0 4 C-1.32 4.99 -2.64 5.98 -4 7 C-3.67 8.32 -3.34 9.64 -3 11 C-4.98 11.99 -4.98 11.99 -7 13 C-6.34 17.62 -5.68 22.24 -5 27 C-8.42558213 23.57441787 -9.15569538 21.47537421 -9.3125 16.8125 C-9.24735774 11.81283192 -7.87901564 8.07477294 -5 4 C-2.25 1.5 -2.25 1.5 0 0 Z " fill="#267838" transform="translate(254,35)"/>
<path d="M0 0 C0.33 0 0.66 0 1 0 C1 9.57 1 19.14 1 29 C9.27688886 29.01037973 9.27688886 29.01037973 17 27 C17 24.69 17 22.38 17 20 C16.01 19.67 15.02 19.34 14 19 C14 18.34 14 17.68 14 17 C15.65 17.33 17.3 17.66 19 18 C20.01622308 23.18273772 20.04723881 24.88190297 18 30 C12.06 30 6.12 30 0 30 C0 20.1 0 10.2 0 0 Z " fill="#337B3C" transform="translate(147,30)"/>
<path d="M0 0 C0.33 0 0.66 0 1 0 C1.01458252 1.15411377 1.02916504 2.30822754 1.04418945 3.49731445 C1.10267344 7.82703847 1.17989806 12.15626931 1.26245117 16.4855957 C1.29546693 18.35042242 1.32356953 20.21534348 1.34643555 22.08032227 C1.4558124 36.7915319 1.4558124 36.7915319 5 51 C1.125 48.375 1.125 48.375 0 45 C-0.08650584 43.51155284 -0.11770173 42.01951743 -0.11352539 40.52856445 C-0.11344986 39.62785721 -0.11337433 38.72714996 -0.11329651 37.79914856 C-0.10813522 36.83031235 -0.10297394 35.86147614 -0.09765625 34.86328125 C-0.0962413 33.86870407 -0.09482635 32.87412689 -0.09336853 31.84941101 C-0.08776761 28.67041018 -0.07521496 25.49147957 -0.0625 22.3125 C-0.05748512 20.15820414 -0.05292219 18.00390718 -0.04882812 15.84960938 C-0.03779788 10.56638226 -0.02105886 5.28319615 0 0 Z " fill="#32783A" transform="translate(182,18)"/>
<path d="M0 0 C0 0.66 0 1.32 0 2 C3.465 1.505 3.465 1.505 7 1 C7.75 3.25 7.75 3.25 8 6 C6.0625 8.3125 6.0625 8.3125 4 10 C3.34 9.67 2.68 9.34 2 9 C2.99 7.35 3.98 5.7 5 4 C4.01 4.33 3.02 4.66 2 5 C0.33732126 5.14220279 -1.3315173 5.22020567 -3 5.25 C-3.86625 5.27578125 -4.7325 5.3015625 -5.625 5.328125 C-8.42903194 4.94072585 -9.26286782 4.17141522 -11 2 C-9.68 2.33 -8.36 2.66 -7 3 C-7 2.34 -7 1.68 -7 1 C-2.25 0 -2.25 0 0 0 Z " fill="#277A3E" transform="translate(265,65)"/>
<path d="M0 0 C0 3 0 3 -1.4375 5.4375 C-5.70302547 9.70302547 -10.95671539 12.23758987 -17.0625 12.25 C-18.031875 12.1675 -19.00125 12.085 -20 12 C-20 11.67 -20 11.34 -20 11 C-19.36191406 10.86722656 -18.72382813 10.73445313 -18.06640625 10.59765625 C-17.24011719 10.42105469 -16.41382813 10.24445313 -15.5625 10.0625 C-14.73878906 9.88847656 -13.91507813 9.71445313 -13.06640625 9.53515625 C-11.02338796 9.19247006 -11.02338796 9.19247006 -10 8 C-10.66 7.67 -11.32 7.34 -12 7 C-12 6.01 -12 5.02 -12 4 C-11.01 4 -10.02 4 -9 4 C-9 4.66 -9 5.32 -9 6 C-7.35 6 -5.7 6 -4 6 C-3.896875 5.38125 -3.79375 4.7625 -3.6875 4.125 C-3 2 -3 2 0 0 Z " fill="#207938" transform="translate(240,60)"/>
<path d="M0 0 C2.475 0.495 2.475 0.495 5 1 C5 11.89 5 22.78 5 34 C4.67 34 4.34 34 4 34 C4 24.1 4 14.2 4 4 C2.68 3.34 1.36 2.68 0 2 C0 1.34 0 0.68 0 0 Z " fill="#237A3A" transform="translate(277,33)"/>
<path d="M0 0 C2 2 2 2 2.23046875 4.42578125 C2.21628906 5.37839844 2.20210937 6.33101562 2.1875 7.3125 C2.18105469 8.25738281 2.17460937 9.20226563 2.16796875 10.17578125 C2 13 2 13 1.4296875 15.6796875 C0.87636585 18.66762442 1.69484276 20.31291156 3 23 C1 21.4375 1 21.4375 -1 19 C-1.25 15.4375 -1.25 15.4375 -1 12 C-1 11.01 -1 10.02 -1 9 C-0.84872598 7.43593472 -0.68097478 5.87340748 -0.5 4.3125 C-0.4071875 3.50425781 -0.314375 2.69601563 -0.21875 1.86328125 C-0.1465625 1.24839844 -0.074375 0.63351563 0 0 Z " fill="#2D7A3C" transform="translate(174,26)"/>
<path d="M0 0 C0.66 0 1.32 0 2 0 C0.4928842 4.06921267 -2.33375958 6.79860056 -6 9 C-9.875 9.8125 -9.875 9.8125 -13 10 C-12.67 9.01 -12.34 8.02 -12 7 C-10.8553125 7.0309375 -10.8553125 7.0309375 -9.6875 7.0625 C-6.89814214 7.12942841 -6.89814214 7.12942841 -4 6 C-4 5.34 -4 4.68 -4 4 C-3.34 4 -2.68 4 -2 4 C-1.34 2.68 -0.68 1.36 0 0 Z " fill="#2A783A" transform="translate(279,76)"/>
<path d="M0 0 C0.77601563 0.01417969 1.55203125 0.02835938 2.3515625 0.04296875 C3.12242187 0.04941406 3.89328125 0.05585937 4.6875 0.0625 C6.9765625 0.23046875 6.9765625 0.23046875 9.125 0.76953125 C11.37999401 1.33090107 12.79148893 0.93281383 14.9765625 0.23046875 C13.6565625 1.88046875 12.3365625 3.53046875 10.9765625 5.23046875 C10.16445313 4.75480469 10.16445313 4.75480469 9.3359375 4.26953125 C6.5608476 3.04738901 4.24448152 2.82103439 1.2265625 2.60546875 C-0.25070312 2.49332031 -0.25070312 2.49332031 -1.7578125 2.37890625 C-2.50546875 2.32992187 -3.253125 2.2809375 -4.0234375 2.23046875 C-2.0234375 0.23046875 -2.0234375 0.23046875 0 0 Z " fill="#267535" transform="translate(260.0234375,32.76953125)"/>
<path d="M0 0 C0.66 1.32 1.32 2.64 2 4 C4.64 4 7.28 4 10 4 C10 4.33 10 4.66 10 5 C5.05 5 0.1 5 -5 5 C-4.67 3.68 -4.34 2.36 -4 1 C-2.68 0.67 -1.36 0.34 0 0 Z " fill="#268143" transform="translate(150,25)"/>
<path d="M0 0 C0.33 0.66 0.66 1.32 1 2 C0.69320313 2.70511719 0.38640625 3.41023438 0.0703125 4.13671875 C-1.27526744 7.73639064 -1.21906419 11.03184326 -1.125 14.8125 C-1.11146484 15.85180664 -1.11146484 15.85180664 -1.09765625 16.91210938 C-1.07426157 18.60822395 -1.03839641 20.30415871 -1 22 C-1.66 22 -2.32 22 -3 22 C-3.27767374 19.45868165 -3.52260763 16.92090278 -3.75 14.375 C-3.83121094 13.66214844 -3.91242187 12.94929688 -3.99609375 12.21484375 C-4.44577623 6.76868931 -3.45043834 4.23949206 0 0 Z " fill="#100D01" transform="translate(28,30)"/>
<path d="M0 0 C5.62917348 0.40208382 8.00386479 2.28930302 12 6 C11.67 6.66 11.34 7.32 11 8 C9.68 7.34 8.36 6.68 7 6 C7.33 5.34 7.66 4.68 8 4 C6.35 4.33 4.7 4.66 3 5 C3 3.68 3 2.36 3 1 C2.01 0.67 1.02 0.34 0 0 Z " fill="#287A38" transform="translate(162,18)"/>
<path d="M0 0 C0 3.93169105 -1.39419615 5.16427228 -4 8 C-4.66 8 -5.32 8 -6 8 C-6 7.34 -6 6.68 -6 6 C-5.34 6 -4.68 6 -4 6 C-3.896875 5.38125 -3.79375 4.7625 -3.6875 4.125 C-3 2 -3 2 0 0 Z " fill="#287034" transform="translate(240,60)"/>
<path d="M0 0 C4 1.33333333 8 2.66666667 12 4 C12 4.33 12 4.66 12 5 C4.61538462 4.50769231 4.61538462 4.50769231 1.5 1.9375 C1.005 1.298125 0.51 0.65875 0 0 Z " fill="#2F7439" transform="translate(250,81)"/>
<path d="" fill="#FFFF7F" transform="translate(0,0)"/>
<path d="" fill="#FFFFFF" transform="translate(0,0)"/>
<path d="" fill="#FFFFFF" transform="translate(0,0)"/>
<path d="" fill="#FFFFFF" transform="translate(0,0)"/>
<path d="" fill="#FFFFFF" transform="translate(0,0)"/>
<path d="" fill="#FFFFFF" transform="translate(0,0)"/>
<path d="" fill="#FFFFFF" transform="translate(0,0)"/>
<path d="" fill="#FFFFFF" transform="translate(0,0)"/>
<path d="" fill="#FFFFFF" transform="translate(0,0)"/>
<path d="" fill="#FFFFFF" transform="translate(0,0)"/>
<path d="" fill="#FFFFFF" transform="translate(0,0)"/>
<path d="" fill="#FFFFFF" transform="translate(0,0)"/>
<path d="" fill="#FFFFFF" transform="translate(0,0)"/>
<path d="" fill="#FFFFFF" transform="translate(0,0)"/>
<path d="" fill="#FFFFFF" transform="translate(0,0)"/>
<path d="" fill="#FFFFFF" transform="translate(0,0)"/>
<path d="" fill="#FFFFFF" transform="translate(0,0)"/>
<path d="" fill="#FFFFFF" transform="translate(0,0)"/>
<path d="" fill="#FFFFFF" transform="translate(0,0)"/>
<path d="" fill="#FFFFFF" transform="translate(0,0)"/>
<path d="" fill="#FFFFFF" transform="translate(0,0)"/>
<path d="" fill="#FFFFFF" transform="translate(0,0)"/>
<path d="" fill="#FFFFFF" transform="translate(0,0)"/>
<path d="" fill="#FFFFFF" transform="translate(0,0)"/>
<path d="" fill="#FFFFFF" transform="translate(0,0)"/>
<path d="" fill="#FFFFFF" transform="translate(0,0)"/>
<path d="" fill="#FFFFFF" transform="translate(0,0)"/>
<path d="" fill="#FFFF00" transform="translate(0,0)"/>
<path d="" fill="#FFFFFF" transform="translate(0,0)"/>
<path d="" fill="#FFFFFF" transform="translate(0,0)"/>
<path d="" fill="#FFFFFF" transform="translate(0,0)"/>
<path d="" fill="#FFFFFF" transform="translate(0,0)"/>
<path d="" fill="#FFFFFF" transform="translate(0,0)"/>
<path d="" fill="#FFFFFF" transform="translate(0,0)"/>
<path d="" fill="#FFFFFF" transform="translate(0,0)"/>
<path d="" fill="#FFFFFF" transform="translate(0,0)"/>
<path d="" fill="#FFFFFF" transform="translate(0,0)"/>
<path d="" fill="#FFFFFF" transform="translate(0,0)"/>
<path d="" fill="#FFFFFF" transform="translate(0,0)"/>
<path d="" fill="#FFFFFF" transform="translate(0,0)"/>
<path d="" fill="#FFFFFF" transform="translate(0,0)"/>
<path d="" fill="#FFFFFF" transform="translate(0,0)"/>
<path d="" fill="#FFFFFF" transform="translate(0,0)"/>
<path d="" fill="#FFFFFF" transform="translate(0,0)"/>
<path d="" fill="#FFFFFF" transform="translate(0,0)"/>
<path d="" fill="#FFFFFF" transform="translate(0,0)"/>
<path d="" fill="#FFFFFF" transform="translate(0,0)"/>
<path d="" fill="#FFFFFF" transform="translate(0,0)"/>
<path d="" fill="#FFFFFF" transform="translate(0,0)"/>
<path d="" fill="#FFFFFF" transform="translate(0,0)"/>
<path d="" fill="#FFFFFF" transform="translate(0,0)"/>
<path d="" fill="#FFFFFF" transform="translate(0,0)"/>
<path d="" fill="#FFFFFF" transform="translate(0,0)"/>
<path d="" fill="#FFFFFF" transform="translate(0,0)"/>
<path d="" fill="#FFFF00" transform="translate(0,0)"/>
<path d="" fill="#FFFFFF" transform="translate(0,0)"/>
<path d="" fill="#FFFFFF" transform="translate(0,0)"/>
<path d="" fill="#FFFFFF" transform="translate(0,0)"/>
<path d="" fill="#FFFFFF" transform="translate(0,0)"/>
<path d="" fill="#FFFFFF" transform="translate(0,0)"/>
<path d="" fill="#FFFFFF" transform="translate(0,0)"/>
<path d="" fill="#FFFFFF" transform="translate(0,0)"/>
<path d="" fill="#FFFFFF" transform="translate(0,0)"/>
<path d="" fill="#FFFFFF" transform="translate(0,0)"/>
<path d="" fill="#FFFFFF" transform="translate(0,0)"/>
<path d="" fill="#FFFFFF" transform="translate(0,0)"/>
<path d="" fill="#FFFFFF" transform="translate(0,0)"/>
<path d="" fill="#FFFFFF" transform="translate(0,0)"/>
</svg>
